<svg width="200" height="130" viewBox="0 0 200 130" fill="none" xmlns="http://www.w3.org/2000/svg">
<g clip-path="url(#clip0_8_33)">
<path d="M153.189 14.3729C153.43 14.6097 153.71 14.8037 154.017 14.9465C154.701 15.1556 155.236 15.6397 155.881 15.8368C156.525 16.0339 157.01 16.3319 157.584 16.5502C158.158 16.7684 159.083 17.3074 159.854 17.65C160.283 17.7814 160.572 18.2328 161.065 18.2981C161.558 18.3633 161.821 18.8283 162.239 18.9988C162.467 19.0888 162.702 19.1607 162.942 19.2138L164.569 20.4589C165.578 20.5112 166.13 21.4277 167.121 21.5387L168.697 22.8108L169.478 23.0497L174.08 26.9985L175.076 27.3031L175.537 28.1702L176.494 28.4629L181.504 33.0281L182.539 33.3446L184.027 34.6965L184.433 35.4616L188.114 39.0005L188.496 39.8437L190.52 41.9574C190.676 42.283 190.743 42.6237 190.961 42.8185C191.573 43.4794 192.062 44.2437 192.406 45.0759C192.772 45.7645 193.258 46.3402 193.605 47.0228L194.638 49.0902C195.559 51.0736 196.263 53.1505 196.737 55.2849C196.696 55.4216 196.765 55.6137 196.807 55.7548C197.396 58.1796 197.589 60.6834 197.38 63.1698C197.308 63.9087 197.184 64.6415 197.008 65.3627C196.532 67.5597 195.807 69.6954 194.848 71.7283C194.472 72.4676 193.946 73.1397 193.604 73.9106C193.336 74.3435 193.013 74.7401 192.645 75.0909L192.31 76.1846C190.921 77.7245 189.437 79.3636 187.934 80.9968C187.463 81.6025 186.873 82.1053 186.2 82.4742C185.98 82.5991 185.785 82.7639 185.625 82.9602C184.806 83.9314 183.831 84.7592 182.74 85.4095C182.012 86.2546 180.862 86.5223 180.147 87.3929C179.563 87.556 179.148 88.0057 178.638 88.2768C178.332 88.4159 178.051 88.604 177.806 88.8338C177.332 89.3155 176.783 89.7175 176.182 90.0242C175.601 90.3165 175.183 90.9148 174.53 91.1637C173.878 91.4125 173.46 92.2886 172.683 92.4566L171.05 94.093L170.387 94.4455C170.46 94.7667 170.67 94.9165 170.835 94.7961C171 94.6757 171.501 94.295 171.97 93.9473L173.211 93.4512C173.197 93.5878 173.156 93.7204 173.092 93.8418C172.851 94.1887 172.592 94.523 172.316 94.8431C171.82 95.4175 171.285 95.98 170.781 96.5094C170.69 96.9247 170.491 97.3086 170.204 97.6221C169.917 97.9357 169.552 98.1676 169.146 98.2945L166.901 100.747L166.745 101.255C166.465 101.682 165.911 101.747 165.598 102.143C165.302 102.448 164.945 102.688 164.55 102.847C164.399 102.928 164.26 103.029 164.137 103.148C163.575 103.66 163.133 104.336 162.336 104.498C161.751 104.972 161.134 105.404 160.489 105.791C159.746 106.333 158.81 106.602 158.242 107.411C158.137 107.55 158.001 107.662 157.843 107.737C156.07 108.647 154.469 109.973 152.653 110.741C151.943 111.037 151.414 111.58 150.677 111.824C150.029 112.005 149.431 112.334 148.931 112.785L144.586 114.702C144.119 114.901 143.651 115.036 143.198 115.26C141.782 115.98 140.227 116.316 138.796 116.946C137.586 117.132 136.406 117.775 135.288 118.009C134.17 118.244 133.096 118.684 131.973 119.003C130.85 119.322 129.602 119.773 128.427 120.054C127.59 120.511 126.675 120.803 125.728 120.916C125.014 121.018 124.303 121.249 123.576 121.39C122.843 121.466 122.121 121.625 121.424 121.863C121.118 121.972 120.797 122.032 120.472 122.042L111.657 122.934C110.358 122.998 109.069 123.19 107.808 123.508C107.263 123.683 106.686 123.613 106.114 123.737C105.157 123.936 104.226 123.416 103.263 123.912C102.301 123.917 101.358 123.927 100.385 124.035C99.4208 124.164 98.4479 124.217 97.4754 124.192C96.5113 124.132 95.5504 124.201 94.6135 124.192C93.6765 124.183 92.8312 124.224 91.9887 124.116C91.1462 124.007 90.0697 124.105 89.1312 124.032C88.1926 123.958 87.0169 123.962 86.0273 123.915C84.4426 123.912 82.8605 123.785 81.2954 123.536C80.1854 123.564 79.0758 123.468 77.9871 123.25C77.0469 123.112 76.08 123.201 75.1323 123.018C74.1845 122.835 73.2655 122.767 72.3193 122.649C72.0829 122.642 71.8471 122.62 71.6135 122.582C69.1527 121.83 66.5068 121.683 64.0102 121.047L57.2506 119.407C56.5866 119.204 55.9226 119.001 55.2976 118.81C54.6922 118.685 54.1109 118.464 53.5758 118.155C52.7555 117.904 52.0085 117.483 51.1345 117.408C50.2605 117.333 49.7355 116.745 48.9754 116.577C48.2734 116.095 47.4987 115.728 46.6808 115.491C45.9119 115.16 45.1645 114.782 44.4431 114.358C43.7802 113.941 43.0262 113.754 42.3888 113.324C41.6279 112.967 40.8996 112.544 40.2125 112.06C39.4791 111.815 38.7988 111.433 38.2075 110.934C37.7926 110.615 37.1725 110.618 36.7619 110.215C36.3513 109.811 36.0432 109.632 35.7003 109.356L34.7629 109.069L33.2203 107.829L32.4195 107.584L29.913 105.514L28.9951 105.234C28.285 104.525 27.4381 103.968 26.5058 103.597C26.3105 103.537 26.175 103.282 26.0095 103.124C25.9599 103.065 25.923 102.995 25.9011 102.92C25.7787 102.618 25.5781 102.354 25.32 102.155C25.0619 101.956 24.7555 101.829 24.4322 101.788L19.7415 97.3632L19.4297 96.7766C19.1859 96.688 18.958 96.5606 18.7549 96.3994C18.5733 96.1547 18.4254 95.8868 18.3151 95.6028L14.88 92.3098L14.443 91.3645C14.2477 91.3048 13.9679 90.9629 13.7091 90.6916C13.0454 90.1713 12.5186 89.497 12.1743 88.7272C12.0711 88.6004 11.9432 88.4958 11.7984 88.42C11.218 87.9144 10.7382 87.3039 10.3839 86.6206C10.1351 85.9678 9.48574 85.577 9.32534 84.8446C8.83213 84.2521 8.43019 83.5893 8.13282 82.8781C7.62686 82.0186 7.38191 81.0039 6.84286 80.1129C6.63856 79.6868 6.49671 79.2334 6.42167 78.7668C6.39283 78.2962 6.22658 77.8443 5.94349 77.4673C5.88846 77.4111 5.8508 77.3403 5.83504 77.2633C5.68404 75.8716 5.34855 74.5944 5.16608 73.2358C4.76212 70.8507 4.66468 68.4238 4.87612 66.014C4.97707 63.4656 5.40478 60.9407 6.14876 58.5012C6.37561 57.792 6.54758 57.0663 6.66312 56.3307C6.80273 55.6629 7.00265 55.0093 7.26044 54.3777C7.57701 53.3426 8.08889 52.3672 8.48358 51.3561C8.62694 50.8873 8.96559 50.4784 9.11492 49.9901C9.8823 49.157 10.0801 48.0215 10.8415 47.2079C11.0238 47.0246 11.1697 46.8083 11.2713 46.5705C11.5708 45.8687 12.0049 45.2324 12.549 44.6975C12.7123 44.5125 12.8621 44.302 13.006 44.1111L13.2568 43.2909L15.4955 40.5798C15.7748 40.0785 16.0865 39.596 16.4285 39.1353C17.7093 37.6476 19.0122 36.181 20.3371 34.7353C21.5316 33.4134 22.7846 32.1095 23.9552 30.8657L24.8825 30.4873L27.2449 28.0704C27.5613 27.6764 27.9647 27.3612 28.4235 27.1495C28.5785 27.0876 28.7175 26.9914 28.8299 26.868C29.4173 26.269 30.085 25.7545 30.8139 25.3391C31.2564 24.9782 31.6598 24.5719 32.0175 24.1268C32.972 23.7994 33.5875 22.8344 34.6395 22.5368C35.186 22.0341 35.7807 21.5865 36.4151 21.2005C37.114 20.7308 37.8536 20.3377 38.5601 19.9131C39.2666 19.4884 39.832 19.1061 40.4951 18.7536C41.1582 18.4012 41.8755 18.1507 42.4979 17.7217C43.9369 16.8747 45.4445 16.1499 47.0048 15.5549C48.4557 14.9308 49.9262 14.3127 51.3711 13.7082C51.6667 13.5564 51.981 13.4443 52.306 13.3748C53.3588 13.1616 54.3843 12.8305 55.3629 12.3876C56.5847 11.8972 57.8458 11.5113 59.1328 11.2341C60.0845 11.0553 61.0118 10.6769 61.9678 10.414C63.4821 10.0015 64.9813 9.49901 66.4793 9.20969C68.7369 8.81099 70.7792 8.0688 72.956 7.79485C74.2138 7.43104 75.5036 7.18902 76.8077 7.07213C78.6192 6.59445 80.4718 6.28868 82.3407 6.15889C83.29 5.92266 84.2517 5.73907 85.2212 5.60898C86.1925 5.54738 87.16 5.437 88.1201 5.27826C89.0929 5.17001 90.0581 5.01673 91.0385 4.95352C91.606 4.91352 92.1145 4.57782 92.7047 4.67292C93.2604 4.76408 93.8245 4.79334 94.3866 4.76018C94.9541 4.72018 95.508 4.65468 96.0755 4.61469C96.3911 4.61697 96.7063 4.63498 97.0201 4.66865C97.4129 4.71176 97.8085 4.72565 98.2034 4.7102C100.533 4.64163 102.865 4.77586 105.171 5.11137C105.953 5.62808 105.851 6.45108 106.086 7.07832C105.573 7.77589 104.683 7.54616 104.161 8.13413C104.072 8.42708 104.491 8.66211 104.199 9.12807L103.164 9.58028C101.937 9.61087 100.908 9.55255 99.8649 9.68193C96.0654 10.1643 92.267 10.4335 88.4675 10.9159C86.6255 11.1427 84.7688 11.5573 82.9208 11.8036C82.0062 12.1617 81.0359 12.3564 80.0539 12.379C79.0751 12.5068 78.1435 12.9694 77.1945 12.9995C76.3014 13.1162 75.4246 13.3354 74.5815 13.6525C73.7155 13.9003 72.8284 14.0774 71.9413 14.2546C70.2632 14.5743 68.6018 15.0485 66.9269 15.4973C65.9708 15.7602 65.0419 16.0741 64.0919 16.3174C63.1566 16.6272 62.2026 16.8775 61.2357 17.067C60.5815 17.1668 59.9432 17.3521 59.3373 17.6182C58.4318 18.0296 57.4843 18.3413 56.5115 18.5479C53.3557 19.7184 50.1024 20.8591 47.016 22.2217C46.0258 22.6663 45.1185 23.3285 44.1266 23.7085C43.2049 24.0794 42.3131 24.5207 41.4591 25.0284C40.7305 25.4376 40.0236 25.8844 39.3412 26.3668C38.9634 26.608 38.5695 26.8229 38.1621 27.0099C37.5136 27.6281 36.8019 28.1763 36.0387 28.6456C35.1956 29.0883 34.4416 29.6832 33.8149 30.4002C33.714 30.536 33.5783 30.6421 33.4221 30.7071C32.677 31.0913 32.0106 31.612 31.4577 32.242L30.7615 32.563C29.9087 33.5154 28.9348 34.3519 27.8647 35.0514C24.9402 37.9798 22.2023 41.1361 19.3981 44.2295C18.7506 44.801 18.2252 45.4975 17.8535 46.2771C17.7478 46.5054 17.6045 46.7142 17.4296 46.895L15.0786 49.7638L14.8277 50.5841C14.337 51.0433 13.9866 51.6322 13.817 52.2825C13.3828 53.004 12.9681 53.7314 12.573 54.4648C11.4465 56.6873 10.6421 59.0588 10.1839 61.508C10.1194 61.9131 10.08 62.3219 10.0658 62.7319C9.95236 63.103 10.0282 63.5533 9.99282 63.9483C9.6344 65.7702 9.6045 67.6416 9.90454 69.474C10.1894 71.9788 10.8023 74.4353 11.7277 76.7803C12.0384 77.5801 12.4 78.3528 12.7617 79.1255C13.0247 79.8535 13.3899 80.5405 13.8462 81.1657C14.011 81.4175 14.1356 81.6933 14.2155 81.9834C14.7708 82.7513 15.578 83.2544 15.9114 84.1893C15.9748 84.4009 16.2108 84.5371 16.3762 84.6945L18.0126 86.3269L18.2767 87.0697L19.0746 87.4633L19.3474 88.0379C20.7058 89.1318 21.8867 90.4295 22.8479 91.8849L27.6271 96.2298L28.545 96.5105L32.7584 100.191L33.6763 100.472L35.2852 101.775C35.6019 102.114 36.0164 102.345 36.471 102.437C37.1696 102.905 37.9157 103.298 38.6967 103.609C39.5434 104.402 40.7825 104.61 41.6172 105.442C42.5638 105.776 43.4276 106.31 44.1499 107.007C45.1418 107.189 46.0858 107.572 46.9236 108.133C49.1549 109.007 51.3546 109.915 53.5739 110.829C54.8792 111.1 56.0933 111.599 57.3627 111.988C58.6321 112.376 59.7453 112.716 60.947 112.977C62.1487 113.238 63.2331 113.463 64.3898 113.731C65.5464 113.999 66.9824 114.332 68.2996 114.564C71.455 115.24 74.6522 115.704 77.8696 115.953C79.6763 116.121 81.4785 116.373 83.2971 116.503C85.1156 116.632 86.485 116.623 88.0485 116.888C88.7125 117.091 89.4749 116.833 90.1747 116.919C90.8746 117.005 92.11 116.806 93.0442 116.964C93.9784 117.121 94.8292 116.783 95.6511 117.099L98.2846 117.007L100.224 116.81C100.862 116.749 101.477 117.044 102.122 116.75C103.005 116.809 103.891 116.787 104.769 116.684C105.549 116.254 106.463 116.137 107.326 116.355C107.39 116.396 107.464 116.419 107.54 116.421C108.918 116.348 110.285 116.136 111.621 115.79C112.141 115.547 112.732 115.5 113.284 115.658C113.837 115.766 114.407 115.758 114.957 115.635C115.957 115.269 117.004 115.043 118.067 114.963C118.321 114.905 118.571 114.831 118.817 114.744L120.723 115.007L121.536 114.444L121.94 114.311C122.805 114.063 123.689 114.248 124.577 113.858C125.465 113.467 126.332 113.497 127.19 113.205C128.235 112.961 129.299 112.8 130.369 112.725L131.299 112.198C131.804 112.278 132.32 112.255 132.816 112.128L133.591 111.617C135.529 111.293 137.423 110.747 139.236 109.991C141.182 109.283 143.072 108.409 144.984 107.606C145.208 107.503 145.424 107.356 145.661 107.279C148.621 106.048 151.235 104.904 154.285 103.381C155.848 102.599 157.357 101.715 158.872 100.812C159.159 100.643 159.445 100.475 159.745 100.331C160.534 100.032 161.254 99.577 161.863 98.9929C162.535 98.654 163.182 98.2665 163.798 97.8335C164.442 97.4751 165.078 97.0716 165.714 96.6681C165.714 96.6681 165.761 96.5119 165.785 96.4337C165.809 96.3556 165.668 96.3979 165.629 96.386C165.59 96.374 165.093 96.3929 164.922 96.5328C164.222 96.9765 163.488 97.3663 162.729 97.6987C161.787 98.2648 160.769 98.6584 159.867 99.2365C158.964 99.8147 158.074 100.14 157.316 100.592C156.19 101.284 154.955 101.78 153.664 102.059L152.703 102.897C152.557 102.985 152.4 103.052 152.236 103.096C150.448 103.418 148.727 104.04 147.146 104.935C146.614 105.347 146 105.639 145.346 105.794C144.461 106.023 143.623 106.402 142.867 106.915C142.805 106.97 142.734 107.014 142.657 107.043C140.52 107.729 138.436 108.569 136.421 109.557C135.194 110.079 133.996 110.503 132.682 110.891C132.207 111.045 131.751 111.14 131.265 111.333C130.661 111.509 130.04 111.62 129.413 111.663C128.368 112.212 127.227 112.552 126.052 112.665C125.437 112.905 124.802 113.089 124.154 113.216C124.017 113.174 123.848 113.379 123.687 113.415C122.995 113.311 122.289 113.326 121.602 113.46C121.096 113.626 120.575 113.738 120.047 113.796L118.328 113.271C118.136 113.34 117.883 113.54 117.681 113.5C116.728 113.336 115.787 113.967 114.816 113.862C114.489 113.851 114.164 113.912 113.864 114.041C112.533 114.426 111.156 114.63 109.77 114.647C109.77 114.647 109.653 114.611 109.575 114.587C109.56 114.503 109.577 114.415 109.623 114.343C109.669 114.27 109.741 114.217 109.824 114.193C110.298 114.04 110.76 113.925 111.234 113.771C111.306 113.724 111.359 113.653 111.384 113.571C111.409 113.489 111.405 113.401 111.372 113.321C110.906 113.254 110.432 113.268 109.971 113.363C109.565 113.418 109.165 113.51 108.776 113.638C108.02 113.906 107.212 113.988 106.418 113.878C106.519 113.546 106.164 113.8 106.495 113.624C107.041 113.251 107.645 112.974 108.284 112.804C109.087 112.623 109.846 112.235 110.667 111.995C111.383 111.798 112.089 111.565 112.781 111.297C113.105 111.175 113.445 111.099 113.79 111.071C114.912 110.815 116.017 110.49 117.099 110.097C118.376 109.762 119.524 109.152 120.852 108.789C122.18 108.426 123.007 107.889 124.086 107.642C125.165 107.396 126.06 106.773 127.128 106.565C127.353 106.527 127.548 106.309 127.758 106.181C127.965 106.04 128.182 105.914 128.407 105.803L136.003 102.616C136.393 102.458 136.771 102.339 137.161 102.18C137.401 102.119 137.632 102.025 137.845 101.898C138.691 101.366 139.592 100.925 140.532 100.584C142.033 99.8687 143.587 99.255 145.114 98.5902C146.486 97.8012 147.91 97.1094 149.378 96.52C150.131 96.1523 150.865 95.7787 151.591 95.3601C152.317 94.9414 152.952 94.7512 153.607 94.3537C154.263 93.9561 155.127 93.6439 155.82 93.1937C156.513 92.7436 157.774 92.2535 158.689 91.6363C159.583 91.1396 160.514 90.7105 161.473 90.3523L162.223 89.5778C162.625 89.3804 163.148 89.1348 163.678 88.8696C164.089 88.5821 164.524 88.3292 164.977 88.1137C165.504 87.8461 166.002 87.5264 166.465 87.1592C168.293 86.1381 170.103 85.111 171.844 83.9564C172.434 83.7737 172.783 83.2611 173.272 82.9194C173.761 82.5778 174.185 82.5155 174.544 82.1125C174.926 81.7821 175.348 81.5023 175.802 81.28C176.228 81.0045 176.58 80.621 177.006 80.3455C177.378 80.1503 177.72 79.9024 178.021 79.6096C178.175 79.4033 178.36 79.2222 178.57 79.0726C179.97 78.1448 181.218 77.0068 182.272 75.6985L182.75 75.1826L183.731 74.6284L185.824 72.3216L186.246 71.3614C186.479 71.0907 186.831 70.7072 187.144 70.3118C187.587 69.7992 187.984 69.2489 188.33 68.6671C188.973 67.6817 189.491 66.6207 189.873 65.5083C190.16 64.5709 190.47 63.5554 190.793 62.5008C190.811 61.6734 190.832 60.6974 190.878 59.7078C190.925 58.7182 190.509 57.8435 190.485 56.8751C190.461 55.9066 190.166 54.9837 189.783 54.1405C189.357 53.3487 188.995 52.5238 188.701 51.6738L188.05 50.9407C187.699 49.8434 187.208 48.796 186.589 47.8245C186.394 47.7647 186.16 47.6931 186.126 47.3838C186.093 47.0746 185.909 46.9758 185.795 46.7913C185.694 46.6727 185.605 46.5452 185.527 46.4103C185.449 46.1874 185.383 45.9604 185.329 45.7305L183.473 43.8387L183.203 43.1154L181.188 41.0467L180.76 40.2111L173.738 33.7709C173.36 33.6383 172.998 33.4631 172.659 33.2487C171.294 32.1263 169.96 30.9709 168.482 29.7287L167.681 29.4838L164.785 27.0817C164.399 26.938 164.023 26.766 163.661 26.5671C163.143 26.2376 162.768 25.7172 162.082 25.6568C161.905 25.0475 161.271 25.0245 160.845 24.7445C159.869 24.3051 158.958 23.732 158.14 23.0418L156.259 22.2101C155.961 22.1257 155.676 22.0025 155.41 21.8437C154.88 21.3828 154.251 21.0513 153.571 20.8753C152.949 20.4172 152.255 20.0675 151.516 19.8412C150.908 19.5269 150.224 19.3179 149.617 19.0681C148.91 18.7609 148.187 18.4899 147.452 18.2565C147.155 18.1821 146.861 18.0923 146.573 17.9877C144.987 17.3437 143.346 16.842 141.671 16.4884C140.596 16.2998 139.54 16.0126 138.517 15.6304C138.449 15.5973 138.376 15.5751 138.302 15.5646C136.211 15.4165 134.163 14.6407 132.074 14.2793C131.158 14.0581 130.225 13.9086 129.285 13.8321C128.811 13.8058 128.344 13.7131 127.896 13.5566C126.333 13.0788 124.664 12.9525 123.046 12.5858C122.27 12.422 121.48 12.3378 120.688 12.3345C119.669 12.2965 118.661 12.1106 117.696 11.7825C117.196 11.1813 117.622 10.3502 117.367 9.71699C117.06 9.65223 116.759 9.56028 116.468 9.44223C116.226 9.2662 116.001 9.06857 115.795 8.85176C115.731 8.36237 116.028 8.0901 116.428 7.82816C117.048 7.65118 117.696 7.59553 118.336 7.66428C118.731 7.70355 119.129 7.71091 119.525 7.6863C120.243 7.6007 120.966 7.57187 121.688 7.60007C123.023 7.7735 124.374 7.82377 125.685 8.07532C126.427 8.3023 127.235 8.31445 128.045 8.39116C128.854 8.46788 130.23 8.44003 131.359 8.65735C133.202 8.98608 135.07 9.30125 136.897 9.75313C137.776 10.0219 144.329 11.4283 144.852 11.6737C145.97 12.2078 147.271 12.2852 148.407 12.7608C149.543 13.2364 150.633 13.4417 151.691 13.8934C152.18 14.0823 152.681 14.2424 153.189 14.3729Z" fill="#F7FFF6"/>
</g>
<defs>
<clipPath id="clip0_8_33">
<rect width="200" height="130" fill="white"/>
</clipPath>
</defs>
</svg>
