<svg width="200" height="95" viewBox="0 0 200 95" fill="none" xmlns="http://www.w3.org/2000/svg">
<path d="M126.452 88.5368L121.491 88.8462C120.65 89.2335 119.74 89.444 118.815 89.465C117.503 89.3626 116.184 89.5383 114.945 89.9807C114.445 90.1333 113.921 90.1893 113.401 90.1457L104.22 90.4138L102.779 90.9089H94.1333C93.0011 90.5995 91.9101 90.0632 90.7161 90.7026C90.2906 90.8732 89.8316 90.9434 89.3747 90.9076C88.9177 90.8718 88.4752 90.7311 88.0813 90.4963C87.2928 90.8288 86.4459 91 85.5905 91C84.735 91 83.8882 90.8288 83.0997 90.4963L69.5547 90.2488L68.1549 89.5681H65.8494C65.1929 89.6247 64.5316 89.5689 63.8938 89.4031C61.8797 88.8585 59.8044 88.5743 57.7183 88.5574C57.2556 88.363 56.7812 88.1977 56.2979 88.0624C55.225 87.9862 54.1627 87.7996 53.1278 87.5055C52.2536 87.2262 51.3474 87.0599 50.4312 87.0105C49.4225 86.8042 48.3727 86.5154 47.4052 86.2267C45.1408 85.6079 42.8353 85.1747 40.6327 84.3703C38.4301 83.5659 36.3922 83.0502 34.4572 82.122C32.858 81.5166 31.2915 80.8282 29.7638 80.0594C28.4052 79.2756 26.9642 78.6362 25.6468 77.9967C23.3741 76.7378 21.1685 75.3608 19.039 73.8715C15.9243 71.6759 13.0718 69.1291 10.5374 66.281C9.63164 65.3321 8.76706 64.3421 7.73781 63.2076L5 57.9892V55.2046L5.51463 54.0701L5.72048 50.7906C5.84399 50.4605 5.92633 50.213 6.02925 49.9655C8.00229 45.6731 10.5889 41.6917 13.7075 38.1466C14.6498 36.8903 15.6745 35.6983 16.7746 34.5782C17.5066 33.683 18.4005 32.9343 19.4095 32.3712C19.7501 32.1751 20.0504 31.9162 20.2947 31.608C21.0563 30.8861 21.7768 30.1023 22.5796 29.4216C23.2941 28.8526 24.0435 28.3291 24.8234 27.854C26.6966 26.6577 28.2611 25.0282 30.2167 23.9556C31.4328 22.9637 32.7427 22.0933 34.1278 21.3567C36.6803 19.7608 39.3269 18.3212 42.0531 17.0458C42.8292 16.5591 43.6766 16.1972 44.5645 15.9732C45.2791 15.7403 45.9687 15.4363 46.623 15.0657C47.4875 14.7563 48.2492 14.1994 49.1138 13.9106C50.9664 13.3124 52.7985 12.6318 54.6717 12.0542C55.4313 11.7071 56.2157 11.4176 57.0184 11.1879C58.2467 10.7473 59.5154 10.4295 60.8061 10.2391C61.9794 9.64093 63.3174 9.5378 64.5114 8.98089C65.0139 8.84225 65.5343 8.77968 66.0553 8.79525C66.7098 8.73704 67.3537 8.59136 67.9697 8.3621C69.3077 7.82581 70.7692 7.78456 72.0867 7.31015C72.8786 7.1477 73.6877 7.08534 74.4951 7.12452L75.7508 6.50573C76.5125 6.50573 77.5623 6.40259 78.5915 6.29946C79.7388 6.00007 80.9096 5.79995 82.091 5.7013C83.1556 5.72266 84.2206 5.68824 85.2817 5.59816L88.7811 5.45378L89.9957 5H98.6002C99.3413 5.18564 100.082 5.43315 100.865 5.55691C101.548 5.63556 102.235 5.67687 102.923 5.68067L104.817 6.79449L104.961 7.61955C103.911 7.99082 103.911 7.99082 97.9827 7.86707L96.5005 7.37203C94.9323 7.19335 93.3441 7.36235 91.8483 7.86707L89.0899 7.99082L85.1582 8.21771C83.654 8.75976 82.0628 9.0185 80.4648 8.98089C80.1666 9.18808 79.831 9.33519 79.4767 9.41404C77.7476 9.41404 76.2243 10.3629 74.5157 10.4866C73.3629 10.4866 72.3131 11.3323 71.1192 11.2704C68.1138 12.5286 64.9437 13.168 61.9382 14.5706C61.1972 14.9213 60.4355 14.9832 59.7151 15.2719C58.9946 15.5607 58.3359 16.0145 57.6566 16.3651C57.2993 16.531 56.9271 16.6622 56.545 16.757C54.8757 17.1858 53.3082 17.943 51.9339 18.9847C50.5346 19.9511 49.0537 20.7931 47.5081 21.5011C44.8944 22.9479 42.3839 24.5744 39.9946 26.3689C37.716 27.9269 35.5989 29.7097 33.675 31.6905C31.8858 33.0245 30.2186 34.5155 28.6934 36.1458C27.7259 37.0534 27.1495 38.2085 26.2438 39.1985C25.3778 40.1863 24.6316 41.2733 24.0206 42.4369C22.157 45.4384 20.4928 48.5597 19.039 51.7806C18.754 52.3694 18.5065 52.9756 18.2979 53.5957C17.8038 55.0918 17.5672 56.6611 17.598 58.2367C17.598 59.1649 17.598 60.0724 17.598 61.0212L19.2449 64.569L20.6241 65.9509C24.0382 69.4047 28.0038 72.2629 32.3575 74.4078C33.8429 75.2413 35.3835 75.9718 36.9686 76.5941C38.6977 77.1717 40.3857 77.873 42.1766 78.2855C43.378 78.8132 44.6574 79.1407 45.9642 79.255C47.1746 79.7518 48.4649 80.0244 49.7725 80.0594C50.3125 80.1878 50.8371 80.3745 51.3369 80.6163L54.4247 80.8638C55.1406 81.1307 55.8773 81.3377 56.6273 81.4826C58.0683 81.6064 59.5092 81.627 60.909 81.6889L62.3911 82.2458L65.9729 82.3695H69.3283L71.1192 82.9883L86.805 83.2358C87.896 83.5452 89.0076 84.1021 90.2015 83.4834C90.3203 83.4352 90.4532 83.4352 90.572 83.4834C91.9597 83.8953 93.4161 84.0216 94.8537 83.8546C96.2947 83.8546 97.7356 83.8546 99.1972 83.8546C100.25 83.9058 101.303 83.7661 102.306 83.4421C102.935 83.2705 103.59 83.2077 104.241 83.2565C106.875 83.2565 109.49 83.1533 112.125 83.1121C112.93 83.0816 113.718 82.8702 114.43 82.4933L120.276 82.1839L121.532 81.6476L124.908 81.3176C125.371 81.0778 125.862 80.8976 126.369 80.7813C127.777 80.7118 129.165 80.4266 130.486 79.9356C132.046 79.7994 133.586 79.4881 135.077 79.0074C136.486 78.75 137.866 78.3492 139.194 77.8111C140.473 77.5895 141.728 77.2442 142.94 76.7798C144.134 76.7798 145.102 75.8516 146.337 75.8516C146.857 75.7893 147.36 75.6283 147.819 75.3772C148.54 75.0678 149.342 75.0472 150.063 74.6759C151.235 74.0994 152.454 73.6233 153.706 73.2527C155.116 72.8521 156.493 72.3418 157.823 71.7263C159.1 71.0869 160.499 70.695 161.796 70.0762C162.907 69.7568 163.999 69.3781 165.069 68.9418C165.625 68.6117 166.243 68.3849 166.819 68.0548C167.395 67.7248 168.137 67.1885 168.878 66.7554C170.508 66.2619 172.021 65.4408 173.324 64.3421C174.23 63.8058 175.115 63.2695 175.979 62.6713C178.241 61.317 180.317 59.6738 182.155 57.7829C182.752 57.1022 183.143 56.2565 183.822 55.5965C184.502 54.9365 184.872 54.4208 185.551 53.637L188.701 47.2222C188.756 45.6249 188.998 44.0396 189.421 42.4988C189.616 42.0087 189.616 41.4625 189.421 40.9724C189.039 39.812 188.817 38.6043 188.763 37.3834C188.037 35.693 187.162 34.0708 186.148 32.5362C184.567 30.2829 182.635 28.2983 180.426 26.6577C177.614 24.5155 174.585 22.6765 171.389 21.1711C169.162 20.0902 166.857 19.18 164.493 18.4484C162.545 17.6963 160.551 17.0694 158.523 16.5714C158.153 16.5714 157.803 16.1176 157.453 16.1176C156.115 16.1176 154.941 15.3132 153.665 15.2307C152.389 15.1482 151.421 14.4881 150.248 14.4056C149.142 14.4589 148.039 14.2393 147.037 13.7662C146.666 13.6413 146.275 13.5854 145.884 13.6012C144.703 13.6307 143.528 13.4275 142.426 13.003C141.922 12.836 141.39 12.7729 140.861 12.8174L137.382 12.6524L135.921 12.1161L127.687 11.8686L126.514 11.3529L116.941 11.1879L115.501 10.631C113.833 10.4041 112.001 10.4866 109.963 10.301C110.313 9.99158 110.457 9.76469 110.601 9.76469C114.924 9.55843 119.268 9.76469 123.611 9.76469H131.722L133.389 10.3629L141.458 10.5691L142.776 11.126L147.037 11.1879L148.128 11.6623C149.013 11.6623 149.939 11.8892 150.845 11.8892C151.751 11.8892 152.554 12.5493 153.48 12.5905C154.398 12.6472 155.298 12.8709 156.135 13.2506C156.887 13.4487 157.65 13.6002 158.42 13.7043C159.306 13.9518 160.15 14.3025 160.993 14.5913C161.358 14.7266 161.729 14.8437 162.105 14.9419C162.747 15.0227 163.381 15.1608 163.999 15.3544C165.069 15.8288 166.263 15.9732 167.313 16.5714C168.795 17.3965 170.442 17.8915 171.965 18.634C175.124 20.2079 178.177 21.9855 181.105 23.9556C181.642 24.3306 182.151 24.7442 182.628 25.1932C183.174 25.7596 183.774 26.2709 184.419 26.7196C185.323 27.2629 186.124 27.961 186.787 28.7822C189.627 31.8681 191.93 35.4101 193.6 39.2604C194.439 41.0389 194.915 42.9674 195 44.9327C195 46.5209 195 48.0885 195 49.718L194.362 51.2031L194.115 53.8639C193.559 55.0808 193.086 56.3184 192.447 57.4529C191.369 59.5538 189.981 61.4799 188.33 63.1664C187.96 63.5377 187.589 63.9089 187.219 64.3008C185.874 65.7448 184.352 67.013 182.69 68.0755C181.476 68.8386 180.343 69.7462 179.067 70.4062C177.009 71.4994 175.074 72.8814 172.892 73.8508C171.934 74.2205 170.999 74.6476 170.092 75.1297C169.175 75.6254 168.226 76.0596 167.251 76.4291C166.407 76.7798 165.584 77.1511 164.719 77.4398C163.793 77.9333 162.802 78.2943 161.776 78.5124C159.529 79.5679 157.202 80.4438 154.818 81.132C152.595 81.8539 150.413 82.7614 148.128 83.1946C146.749 83.999 145.04 83.7515 143.661 84.5559C142.617 84.6297 141.594 84.8808 140.635 85.2985C139.811 85.6285 138.844 85.546 137.979 85.9173C136.708 86.1673 135.451 86.484 134.212 86.8661C132.154 86.8661 130.095 87.918 128.037 87.8974C127.479 88.0296 126.945 88.2451 126.452 88.5368Z" fill="#433743"/>
</svg>
