<svg width="200" height="105" viewBox="0 0 200 105" fill="none" xmlns="http://www.w3.org/2000/svg">
<g clip-path="url(#clip0_8_49)">
<path d="M173.021 23.2228L172.31 23.1203L168.003 20.7435C167.447 20.3315 166.796 20.0688 166.11 19.9807L163.993 18.9568C163.793 18.9575 163.593 18.9312 163.4 18.8785C162.872 18.5735 162.327 18.2589 161.654 18.0904C161.118 18.0012 160.599 17.8348 160.112 17.5964C159.761 17.3865 159.36 17.2767 158.952 17.2791C158.398 16.9576 157.813 16.6935 157.206 16.491C156.676 16.3698 156.155 16.2158 155.645 16.03C155.248 15.8012 154.707 15.8627 154.265 15.6739C153.815 15.5136 153.35 15.3998 152.876 15.3343C152.26 15.2204 151.691 15.024 151.102 14.8605C150.504 14.7156 149.921 14.5118 149.362 14.2522C149.266 14.1571 149.146 14.0883 149.016 14.052C148.197 14.1737 147.805 13.5949 147.365 13.0987C147.143 12.8933 146.903 12.7101 146.646 12.5517L145.558 10.8892C145.905 10.5171 146.286 11.1549 146.627 10.8679C146.694 10.7524 146.78 10.6038 146.808 10.5542C146.837 10.5047 146.59 10.208 146.525 10.0162C146.434 9.74056 146.443 9.44184 146.55 9.17209C146.642 9.00402 146.78 8.8651 146.947 8.77101C147.114 8.67691 147.304 8.63136 147.496 8.63951C147.898 8.80588 148.313 8.9421 148.735 9.04703C149.143 9.0924 149.543 9.19693 149.921 9.35736C150.023 9.44535 150.141 9.51327 150.268 9.55754C150.883 9.5413 151.495 9.64773 152.068 9.8706C152.679 10.2233 153.422 10.08 153.967 10.3946C154.512 10.7091 155.167 10.6033 155.738 10.9109C156.125 11.0441 156.521 11.1478 156.924 11.2212C157.271 11.4214 157.634 11.6311 158.054 11.7417C158.655 11.868 159.242 12.052 159.807 12.291C160.72 12.396 161.605 12.6752 162.413 13.1137L162.95 13.1374C163.788 13.4013 164.502 14.0334 165.431 14.0636L168.18 15.5183L168.891 15.6208C172.441 17.6702 176.121 19.5311 179.705 21.8644L180.192 22.4318L181.546 23.2134C181.74 23.2807 181.919 23.3842 182.075 23.5185C182.562 24.1117 183.158 24.6056 183.832 24.9735C184.31 25.6415 184.834 26.2752 185.401 26.8699C185.866 27.2726 186.283 27.7275 186.643 28.2256C186.897 28.5484 187.223 28.8241 187.45 29.1538C188.383 30.1656 189.123 31.3389 189.634 32.616C190.066 33.2049 190.44 33.8337 190.751 34.4938C190.827 34.6855 190.932 34.8645 191.061 35.0249C191.208 35.1836 191.364 35.3327 191.53 35.4715C191.653 35.8291 191.775 36.2293 191.931 36.606C192.088 36.9827 192.307 37.3289 192.489 37.6986C192.959 38.4619 193.329 39.282 193.59 40.1392C193.632 40.3434 193.704 40.5404 193.802 40.7242C194.423 42.1079 194.878 43.5601 195.157 45.0505C195.243 45.591 195.295 46.1361 195.315 46.6829C195.546 48.5154 195.512 50.3716 195.215 52.1945C195.105 53.4191 194.831 54.6235 194.402 55.7758C194.164 56.1885 194.311 56.7354 194.046 57.1552C193.782 57.5749 193.57 57.9807 193.322 58.41C193.233 58.511 193.164 58.6289 193.122 58.7567C193.011 59.5101 192.713 60.2236 192.254 60.8314C191.806 61.6074 191.358 62.3834 190.91 63.1594C190.818 63.4191 190.679 63.6598 190.5 63.8693C189.76 64.6544 189.112 65.521 188.568 66.4524C188.411 66.5397 188.266 66.6489 188.139 66.7768C187.901 67.1896 187.662 67.6024 187.275 67.9293C186.888 68.2563 186.606 68.4017 186.404 68.7909C185.952 69.421 185.434 70 184.857 70.5174C184.324 70.8411 183.907 71.324 183.663 71.8978C183.61 72.0205 183.543 72.1368 183.463 72.2445C183.094 72.4273 182.717 72.584 182.364 72.7764C182.311 72.8163 182.277 72.8753 182.268 72.9404C182.26 73.0056 182.277 73.0715 182.317 73.1238C183.031 73.1837 183.638 72.7418 184.315 72.7141C184.345 72.7158 184.373 72.7245 184.399 72.7394C184.425 72.7542 184.447 72.775 184.463 72.7999C184.473 72.8324 184.476 72.8666 184.473 72.9003C184.469 72.9341 184.458 72.9667 184.441 72.9961C184.424 73.0255 184.401 73.0511 184.374 73.0713C184.347 73.0915 184.315 73.1059 184.282 73.1136C184.114 73.2145 183.922 73.2799 183.737 73.3713L183.218 73.622L183.594 74.1912C183.358 74.4019 183.106 74.5951 182.842 74.7696C182.216 75.0708 181.661 75.5002 181.212 76.0298C180.975 76.2766 180.69 76.4718 180.374 76.603C180.13 76.7209 179.875 76.8171 179.614 76.8905L178.231 77.3029C177.831 77.384 177.445 77.525 177.087 77.7211C176.677 78.0125 176.194 78.086 175.708 78.3558L175.03 79.2632C174.06 79.7789 173.039 80.1927 171.984 80.4982C170.691 80.9458 169.44 81.5051 168.245 82.1699C168.023 82.3215 167.786 82.4504 167.538 82.5546C166.786 82.7144 166.159 83.1893 165.447 83.3942C164.734 83.5991 163.984 84.1349 163.173 84.2827C162.361 84.4304 161.728 84.7255 161.006 84.947C160.417 85.1138 159.846 85.337 159.3 85.6133C158.391 86.097 157.431 86.4805 156.439 86.7569C155.972 86.8643 155.526 87.0451 155.117 87.2925C154.818 87.4655 154.493 87.5902 154.155 87.6619C153.149 87.9175 152.262 88.4622 151.303 88.7889C150.778 89.1201 150.2 89.3598 149.595 89.4978C148.938 89.6902 148.3 89.9406 147.688 90.2461C147.095 90.5863 146.374 90.654 145.751 90.9326C144.758 91.3941 143.683 91.6541 142.624 92.0774L141.427 92.817C140.875 93.0486 140.215 93.0859 139.728 93.5094C139.558 93.6263 139.367 93.7105 139.166 93.7575C137.95 94.0487 136.752 94.4162 135.581 94.8577C134.491 95.2706 133.378 95.6202 132.247 95.9046C131.655 96.071 131.078 96.2909 130.525 96.5614C130.086 96.7617 129.624 96.9089 129.149 96.9998L124.175 98.3327C123.92 98.425 123.652 98.478 123.38 98.4899C122.358 98.5737 121.349 98.7739 120.372 99.0866C119.69 99.1995 119.119 99.6178 118.43 99.7046C117.742 99.7914 117.083 99.9398 116.409 100.079C115.734 100.218 115.485 100.382 115.019 100.465C114.553 100.548 113.801 100.554 113.19 100.62C112.58 100.686 112.158 101.036 111.597 100.977C111.117 100.999 110.641 101.07 110.175 101.191C109.767 101.185 109.36 101.215 108.957 101.28C108.166 101.438 107.367 101.55 106.563 101.614C105.76 101.746 104.921 101.789 104.187 101.916C103.845 101.925 103.503 101.956 103.165 102.008C102.56 102.14 101.938 102.175 101.323 102.111C100.564 102.102 99.8054 102.142 99.0519 102.231C96.8003 102.318 94.5392 102.422 92.3004 102.296C91.1515 102.227 90.0488 102.383 88.8173 102.266C87.1115 102.207 85.4098 102.062 83.7186 101.832C82.9065 101.724 82.0888 101.663 81.2696 101.651C80.2476 101.649 79.229 101.533 78.2325 101.306L78.0674 101.211C77.4523 101.26 76.8336 101.194 76.2427 101.016C75.7144 100.711 75.0208 100.883 74.4543 100.644C74.044 100.616 73.6438 100.505 73.2781 100.317C72.9314 100.117 72.4652 100.2 72.0899 100.049C71.7146 99.8986 70.8584 99.9326 70.3161 99.5755C70.1304 99.4925 69.9288 99.4513 69.7255 99.4547C68.6353 99.3875 67.5628 99.1472 66.5481 98.7429C66.1189 98.4951 65.5764 98.7102 65.1662 98.4293C64.8033 98.2296 64.3913 98.1368 63.9779 98.1616C63.4826 97.8756 62.8862 97.9936 62.3978 97.7336C61.9095 97.4737 61.3277 97.49 60.8273 97.2892C60.3269 97.0883 59.7572 97.0456 59.2472 96.8612C58.8176 96.6425 58.3504 96.5072 57.8704 96.4625C57.7456 96.4131 57.6288 96.3457 57.5237 96.2624C56.9276 95.9222 56.2826 95.6761 55.6115 95.5326C55.0062 95.5134 54.5383 94.913 53.8473 95.0424C53.7135 95.0139 53.5921 94.9438 53.5005 94.8422C52.6219 94.4763 51.7223 94.1628 50.8066 93.9032C50.4255 93.9914 50.2287 93.5696 49.9239 93.5257C49.59 93.4612 49.2638 93.3615 48.951 93.2281C48.5547 92.9993 48.025 93.0017 47.5906 92.839C47.1562 92.6762 46.8807 92.4291 46.5175 92.2194C46.1699 92.1098 45.8156 92.0229 45.4569 91.9593L44.0553 91.2602C43.9004 91.1256 43.721 91.022 43.527 90.9551C42.8434 90.8569 42.1902 90.6076 41.6149 90.2254C41.0737 89.8655 40.4622 89.6249 39.8208 89.5198C39.5597 89.4308 39.3185 89.2915 39.1109 89.1099C38.0377 88.4903 36.9143 87.9958 35.9079 87.2607C35.4024 86.9049 34.8102 86.6923 34.1938 86.6453C30.0655 84.4159 26.0205 82.0805 22.0752 79.6486L21.2178 79.4178L17.6262 77.2121L17.1913 76.6308C16.4061 76.2089 15.7119 75.636 15.1486 74.9451C14.4622 74.4931 13.845 73.9439 13.3162 73.3148C12.8197 72.764 12.3613 72.1471 11.8553 71.6128C11.5715 71.3147 11.3164 70.9905 11.0934 70.6446C10.936 70.4216 10.8141 70.1751 10.6567 69.9522C10.1088 69.2616 9.53481 68.578 9.02249 67.8639C8.51016 67.1499 8.24618 66.4251 7.80943 65.7327C7.10171 64.6464 6.56247 63.4593 6.21002 62.2116L5.2375 58.6342C5.03174 57.5573 4.88031 56.4706 4.78379 55.3784C4.73425 54.7644 4.75127 54.1469 4.83456 53.5365C4.88819 52.6429 4.95834 51.7588 5.02849 50.8747C5.03984 50.1576 5.18079 49.4484 5.44454 48.7815C5.5738 48.3246 5.67302 47.8598 5.74159 47.39C5.86044 46.86 6.01444 46.3385 6.20257 45.829C6.28855 45.5431 6.34066 45.2481 6.35782 44.95C6.72848 44.2724 6.99405 43.5424 7.14544 42.7851C7.23213 42.5229 7.37163 42.2813 7.55533 42.0751C8.50856 40.4241 9.41413 38.8556 10.3292 37.2706C11.1442 36.9266 11.3071 35.92 12.0961 35.583L13.1147 34.1238C14.0924 33.3454 14.9094 32.5403 15.7595 31.7543C17.485 30.1082 19.3493 28.6141 21.3317 27.2885C22.3017 26.6378 23.2953 26.0227 24.2488 25.3625C25.8999 24.2715 27.6052 23.2649 29.3582 22.3466C31.0981 21.3919 32.8381 20.4372 34.6459 19.6318C35.0544 19.2293 35.6458 19.1964 36.1152 18.9171C36.6439 18.6011 37.1943 18.323 37.7624 18.085C38.2623 17.8673 38.8092 17.7208 39.3161 17.5291C39.823 17.3375 40.5624 16.9719 41.1925 16.7193C42.2089 16.2934 43.2532 15.9718 44.2765 15.572C45.2864 15.1456 46.3209 14.7799 47.3744 14.4767C48.6343 13.9341 49.9287 13.4754 51.2491 13.1035C53.1808 12.3841 55.1508 11.7724 57.1501 11.2711C59.1389 10.7243 61.1277 10.1774 63.1139 9.67315L69.307 8.09746C69.8334 7.94681 70.3745 7.85328 70.9209 7.81852C71.4628 7.75417 71.9981 7.64342 72.521 7.48749C73.6386 7.16396 74.7809 6.93258 75.9363 6.79565C76.408 6.72305 76.8739 6.61686 77.3305 6.4779C78.2537 6.17249 79.2121 5.98604 80.1824 5.92307C80.3863 5.91591 80.5876 5.87609 80.7789 5.80513C82.0931 5.39716 83.4929 5.41285 84.8141 5.03092C85.8315 4.96767 86.8411 4.81389 87.8312 4.57141C88.7045 4.39322 89.5867 4.35222 90.481 4.25216C91.3753 4.15209 91.7044 4.07789 92.3078 3.98599C92.9112 3.89409 93.8125 3.82006 94.5391 3.66723C95.2104 3.548 95.8883 3.4689 96.5691 3.43034C97.7968 3.32466 98.9446 3.12878 100.238 3.06123C101.532 2.99369 102.694 2.84988 103.922 2.74421C105.275 2.55877 106.642 2.50073 108.006 2.57086C108.694 2.63777 109.36 2.3617 110.055 2.45465C110.676 2.526 111.305 2.5033 111.921 2.38729C112.398 2.3527 112.878 2.36434 113.353 2.42204C115.538 2.45069 117.855 2.7093 120.119 2.82816C120.58 2.94451 121.05 3.02409 121.523 3.06615C121.931 3.04405 122.34 3.08011 122.738 3.17324C123.215 3.1779 123.689 3.25823 124.142 3.41123C125.831 3.60536 127.507 3.89706 129.163 4.28488C129.73 4.21647 130.204 4.57801 130.757 4.61121C131.311 4.64442 131.669 4.93923 132.118 5.00035C132.654 5.12323 133.171 5.31803 133.654 5.57945C133.831 5.65528 134.018 5.70395 134.21 5.7238C134.619 5.77433 135 5.95607 135.297 6.24179C135.68 6.61617 136.038 7.01424 136.37 7.43364C135.836 7.52112 135.437 7.18119 134.931 7.21914C134.521 7.2032 134.116 7.11826 133.733 6.96788C133.28 6.83817 132.829 6.6659 132.385 6.51968L132.221 7.26146C131.806 7.48426 131.517 7.18502 131.193 7.17412L130.212 7.15793C129.955 7.28066 129.685 7.37615 129.409 7.44284C129.068 7.47843 128.724 7.47214 128.385 7.42409C127.905 7.35644 127.415 7.42471 126.972 7.62117C126.338 7.88159 125.647 7.97539 124.966 7.89363C124.353 7.84834 123.738 7.99931 123.126 7.95402C121.965 8.0155 120.801 7.91401 119.668 7.65249C118.789 7.53854 117.902 7.5053 117.017 7.55319C116.611 7.59572 116.202 7.6026 115.795 7.57376L112.508 7.3936C112.004 7.5427 111.579 7.93571 110.972 7.80531C110.638 7.72527 110.292 7.70451 109.951 7.74401C108.727 7.91828 107.484 7.70702 106.24 7.80316C104.996 7.8993 103.364 7.90386 101.945 8.07489C99.7158 8.3511 97.3747 8.36432 95.2183 8.8584C93.3071 8.96576 91.4416 9.45167 89.5139 9.5495C89.3065 9.56516 89.1012 9.60148 88.901 9.65791C88.0396 9.88106 87.1621 10.0369 86.2765 10.1239C85.4785 10.3075 84.6689 10.4358 83.8533 10.508C83.6502 10.5211 83.4497 10.5607 83.2569 10.626C81.9313 10.9393 80.6526 11.3238 79.2356 11.4522C77.8186 11.5807 76.6885 12.051 75.4315 12.3599C74.457 12.6815 73.4467 12.8819 72.4233 12.9566C72.2171 12.9579 72.0153 13.0167 71.8408 13.1266C70.9552 13.6172 70.0046 13.98 69.0173 14.2042C68.2951 14.4256 67.5589 14.595 66.8297 14.7903L58.0324 17.0638C57.3638 17.2149 56.7106 17.4273 56.081 17.6984C55.3922 18.004 54.6773 18.2469 53.9449 18.4243C53.2843 18.6152 52.6167 18.7801 51.963 18.9972C51.0915 19.1745 50.2588 19.5063 49.5041 19.977C48.9528 20.055 48.5443 20.4575 47.9599 20.5164C47.5076 20.6413 47.0645 20.7974 46.6336 20.9834C45.5818 21.2831 44.564 21.6915 43.5967 22.2019C43.1187 22.4669 42.6165 22.6855 42.0969 22.855C41.7786 22.9809 41.4677 23.1248 41.1657 23.2859C40.5355 23.5385 39.9403 23.9213 39.3267 24.1834C38.7315 24.3441 38.1693 24.6082 37.6655 24.9635C35.9868 25.5532 34.3624 26.2873 32.8105 27.1576C32.2518 27.4137 31.7358 27.7544 31.2808 28.1676C30.9871 28.4564 30.6531 28.7011 30.2891 28.8939C29.2797 29.3457 28.4278 30.0206 27.4584 30.5176C26.2639 31.1793 25.108 31.9084 23.9962 32.7014C23.0192 33.326 22.1526 34.1025 21.1991 34.7628C20.2455 35.423 19.5587 36.1932 18.7068 36.8681C18.4387 37.0655 18.2011 37.3246 17.9565 37.5576C17.3666 38.0143 16.838 38.5453 16.384 39.1373C16.079 39.6656 15.4488 39.9182 15.1412 40.4891C14.8337 41.06 14.5884 41.4467 14.2738 41.9915L13.6283 42.4994C12.8086 43.9193 11.9507 45.4053 11.1214 46.8417L10.9833 47.5765C10.6945 48.1034 10.4447 48.6508 10.2359 49.2143C10.0006 50.003 9.86696 50.8064 9.71682 51.6003C9.54446 52.3807 9.46785 53.1792 9.48868 53.9782C9.52083 54.7232 9.6546 55.4828 9.64165 56.2679C9.62004 56.7478 9.72387 57.225 9.94289 57.6526C10.0154 57.838 10.0584 58.0337 10.0704 58.2325C10.228 59.4615 10.5769 60.6583 11.1045 61.7794C11.2425 62.0934 11.3573 62.4172 11.4478 62.7481L11.7841 63.6907C12.1269 64.2409 12.4367 64.7719 12.782 65.2795C13.0632 65.7447 13.3987 66.1749 13.7813 66.5609C14.1827 67.002 14.5402 67.4811 14.8485 67.9916L15.608 68.4301L16.5161 68.9543C16.9579 69.5617 17.5447 70.0325 17.9674 70.6728C18.6939 71.0923 19.1186 71.8438 19.819 72.2702L21.8168 73.4236L22.3202 74.0004C23.3016 74.5297 24.1945 75.2086 24.9668 76.0127L25.7061 76.2194C25.7735 76.3394 25.8592 76.4483 25.96 76.5421L27.811 77.7209L28.7586 77.8717L29.8153 78.4818L30.3327 79.1107L31.3273 79.3327C31.6169 79.4786 31.8981 79.641 32.1693 79.8189C32.4298 80.0506 32.6773 80.2964 32.9109 80.5552L33.7238 80.6724L36.7929 82.3342L37.4972 82.4107L40.5021 84.1455C41.0408 84.1859 41.5614 84.3579 42.018 84.6465C42.3804 84.8329 42.7799 84.9357 43.1872 84.9473L45.4829 86.1186L46.3053 86.2192L47.1143 86.6863C47.5239 86.9316 47.9796 87.0898 48.4531 87.151C48.7217 87.1986 48.9794 87.2952 49.2132 87.4358C49.5074 87.61 49.8363 87.7172 50.1766 87.7499C50.3149 87.7337 50.455 87.7539 50.5831 87.8084C51.4912 88.3327 52.4724 88.3489 53.4561 88.8948C53.5551 88.9868 53.6736 89.0552 53.8028 89.095C54.7155 89.1156 55.4673 89.6817 56.3774 89.7449C57.1534 90.1929 58.1138 90.131 58.9183 90.5295C59.6208 90.4947 60.1834 91.0837 60.8458 91.0039C61.5083 90.9241 62.2094 91.1968 62.7828 91.4618C64.0048 91.5949 65.1301 92.2006 66.3667 92.2321C67.7049 92.6985 69.0879 93.0248 70.4934 93.2058C71.0911 93.3527 71.5666 93.8254 72.2672 93.6796C72.9207 93.8778 73.5978 93.9874 74.2805 94.0054C74.5545 94.0158 74.8237 94.0813 75.0718 94.1981C75.253 94.3014 75.4514 94.3712 75.6573 94.4041C76.8158 94.4565 77.9373 94.8399 79.0983 94.8498C80.0529 94.8816 81.0012 95.0159 81.9271 95.2502C82.4598 95.3657 83.0014 95.4354 83.546 95.4584C84.0827 95.482 84.5945 95.7775 85.1605 95.598C85.3647 95.5539 85.5772 95.5696 85.7727 95.6433C86.5771 95.7899 87.3921 95.8702 88.2097 95.8835C89.3691 95.7834 90.5359 95.8076 91.6902 95.9557C92.0896 95.9883 92.5082 95.9878 92.9172 96.0038C93.3262 96.0198 93.3567 96.0814 93.5225 96.023C94.5245 95.789 95.5606 95.7383 96.5807 95.8735C97.6782 95.9159 98.7765 95.8094 99.8454 95.557C100.602 95.6194 101.331 95.4241 102.107 95.4535C102.882 95.483 103.741 95.4064 104.561 95.3959C104.766 95.3915 104.971 95.3695 105.172 95.33C105.647 95.2305 106.109 95.0788 106.582 95.0218C107.056 94.9648 107.407 95.0799 107.805 95.0012C108.421 94.9682 109.032 94.8791 109.632 94.7351C110.176 94.5233 110.764 94.4472 111.345 94.5133C111.69 94.5151 112.033 94.4517 112.355 94.3263C112.815 94.1939 113.29 94.1275 113.768 94.1292C114.179 94.1074 114.585 94.0223 114.97 93.8768C115.223 93.7804 115.467 93.6636 115.7 93.5277C116.402 93.6467 117.045 93.1813 117.721 93.3073C118.396 93.4333 118.797 93.1584 119.351 93.1916C119.83 93.1702 120.304 93.0807 120.759 92.926C121.674 92.6721 122.605 92.4741 123.545 92.333C125.198 92.0658 126.828 91.6755 128.423 91.1653C129.031 91.0538 129.616 90.8405 130.152 90.5345C130.402 90.4166 130.665 90.3319 130.936 90.2826C131.45 90.117 132.01 90.1762 132.522 89.8995C133.031 89.6903 133.558 89.5303 134.097 89.4217L135.48 89.0093L137.071 88.5411C137.275 88.5009 137.473 88.4383 137.663 88.3546C138.644 87.8797 139.674 87.5147 140.735 87.2663C141.341 87.1439 141.923 86.922 142.457 86.6095C142.699 86.4763 142.962 86.3825 143.234 86.3316L145.924 85.4852C146.647 84.9563 147.629 84.9725 148.338 84.3916C148.59 84.1846 148.992 84.1746 149.314 84.0743C149.636 83.9741 150.505 83.7273 151.09 83.5147C151.602 83.3263 152.103 83.1082 152.59 82.8617C153.867 82.2123 155.227 81.7643 156.476 81.0108C157.052 80.6611 157.804 80.655 158.346 80.175C159.499 79.7403 160.5 78.9975 161.64 78.5107C162.779 78.0239 163.757 77.2456 164.864 76.7397C166.472 75.7088 168.096 74.6874 169.673 73.5948C170.284 73.2492 170.857 72.843 171.386 72.3822C171.884 72.117 172.29 71.7064 172.55 71.2051L173.605 70.7132C174.127 70.1606 174.689 69.6463 175.286 69.1742C176.239 68.5139 177.059 67.6663 178.066 67.1032C178.357 66.727 178.678 66.3749 179.026 66.0505C179.818 65.5172 180.409 64.6473 181.156 64.154C181.319 64.0242 181.456 63.8642 181.56 63.6829C182.176 62.9576 182.857 62.2894 183.593 61.6867L184.894 59.9284C185.231 59.6443 185.539 59.3281 185.814 58.9843C186.157 58.3899 186.5 57.7955 186.843 57.2011C187.425 56.194 188.016 55.1704 188.597 54.1632C189.052 53.2449 189.422 52.2863 189.7 51.2998C189.75 51.1734 189.775 51.0387 189.775 50.9028C189.795 50.1438 189.976 49.4116 190.045 48.6812C190.271 46.5667 190.118 44.429 189.595 42.3678L189.259 41.0066C188.961 40.4555 188.693 39.8892 188.455 39.3099C188.133 38.3307 187.678 37.4007 187.101 36.5467C186.415 35.4464 185.668 34.3766 184.956 33.2833C184.061 32.0273 183.063 30.8475 181.973 29.7561C181.561 29.2472 181.079 28.7986 180.542 28.4231C180.013 28.1181 179.735 27.4949 179.18 27.1969C178.693 26.9492 178.219 26.6756 177.76 26.3771C177.64 26.3079 177.537 26.211 177.461 26.0943C177.269 25.7411 176.9 25.7702 176.636 25.6177L175.96 24.9195L173.021 23.2228Z" fill="#433743"/>
</g>
<defs>
<clipPath id="clip0_8_49">
<rect width="200" height="105" fill="white"/>
</clipPath>
</defs>
</svg>
